<?xml version="1.0" encoding="UTF-8" standalone="no"?>
<!DOCTYPE svg PUBLIC "-//W3C//DTD SVG 1.1//EN" "http://www.w3.org/Graphics/SVG/1.1/DTD/svg11.dtd">
<svg width="100%" height="100%" viewBox="0 0 168 135" version="1.1" xmlns="http://www.w3.org/2000/svg" xmlns:xlink="http://www.w3.org/1999/xlink" xml:space="preserve" xmlns:serif="http://www.serif.com/" style="fill-rule:evenodd;clip-rule:evenodd;stroke-linejoin:round;stroke-miterlimit:2;">
    <g transform="matrix(1,0,0,1,37.5011,37.5011)">
        <path d="M-0,3.731L92.425,3.731C94.484,3.731 96.157,2.059 96.157,-0C96.156,-2.059 94.484,-3.732 92.425,-3.731L-0,-3.731C-2.059,-3.732 -3.731,-2.059 -3.731,-0C-3.732,2.059 -2.059,3.731 -0,3.731Z"/>
    </g>
    <g transform="matrix(1,0,0,1,37.5011,67.3946)">
        <path d="M-0,3.731L92.425,3.731C94.484,3.731 96.157,2.059 96.157,-0C96.156,-2.059 94.484,-3.732 92.425,-3.731L0,-3.731C-2.059,-3.732 -3.731,-2.059 -3.731,-0C-3.732,2.059 -2.059,3.731 -0,3.731Z"/>
    </g>
    <g transform="matrix(1,0,0,1,37.5011,97.2882)">
        <path d="M0,3.731L92.425,3.731C94.484,3.732 96.156,2.059 96.157,0C96.157,-2.059 94.484,-3.731 92.425,-3.731L-0,-3.731C-2.059,-3.731 -3.732,-2.059 -3.731,0C-3.731,2.059 -2.059,3.732 0,3.731Z"/>
    </g>
    <g transform="matrix(0,-1,-1,0,107.202,26.1591)">
        <path d="M-11.342,-11.342C-17.607,-11.342 -22.684,-6.264 -22.684,0C-22.684,6.263 -17.607,11.342 -11.342,11.342C-5.078,11.342 0,6.263 0,0C0,-6.264 -5.078,-11.342 -11.342,-11.342" style="fill:white;fill-rule:nonzero;"/>
    </g>
    <g transform="matrix(0,-1,-1,0,107.202,26.1591)">
        <path d="M-11.342,-12.88C-4.233,-12.88 1.538,-7.109 1.538,0C1.538,7.109 -4.233,12.88 -11.342,12.88C-18.451,12.88 -24.222,7.109 -24.222,0C-24.222,-7.109 -18.451,-12.88 -11.342,-12.88ZM-11.342,-9.804C-16.753,-9.804 -21.146,-5.411 -21.146,0C-21.146,5.411 -16.753,9.804 -11.342,9.804C-5.931,9.804 -1.538,5.411 -1.538,0C-1.538,-5.411 -5.931,-9.804 -11.342,-9.804Z" style="fill:rgb(255,255,0);"/>
    </g>
    <g transform="matrix(0,-1,-1,0,60.7572,56.0526)">
        <path d="M-11.342,-11.342C-17.607,-11.342 -22.684,-6.264 -22.684,0C-22.684,6.263 -17.607,11.342 -11.342,11.342C-5.078,11.342 0,6.263 0,0C0,-6.264 -5.078,-11.342 -11.342,-11.342" style="fill:white;fill-rule:nonzero;"/>
    </g>
    <g transform="matrix(0,-1,-1,0,60.7572,56.0526)">
        <path d="M-11.342,-12.88C-4.233,-12.88 1.538,-7.109 1.538,0C1.538,7.109 -4.233,12.88 -11.342,12.88C-18.451,12.88 -24.222,7.109 -24.222,0C-24.222,-7.109 -18.451,-12.88 -11.342,-12.88ZM-11.342,-9.804C-16.753,-9.804 -21.146,-5.411 -21.146,0C-21.146,5.411 -16.753,9.804 -11.342,9.804C-5.931,9.804 -1.538,5.411 -1.538,0C-1.538,-5.411 -5.931,-9.804 -11.342,-9.804Z" style="fill:rgb(61,116,228);"/>
    </g>
    <g transform="matrix(0,-1,-1,0,99.7123,85.9462)">
        <path d="M-11.342,-11.342C-17.607,-11.342 -22.684,-6.264 -22.684,0C-22.684,6.263 -17.607,11.342 -11.342,11.342C-5.078,11.342 0,6.263 0,0C0,-6.264 -5.078,-11.342 -11.342,-11.342" style="fill:white;fill-rule:nonzero;"/>
    </g>
    <g transform="matrix(0,-1,-1,0,99.7123,85.9462)">
        <path d="M-11.342,-12.88C-4.233,-12.88 1.538,-7.109 1.538,0C1.538,7.109 -4.233,12.88 -11.342,12.88C-18.451,12.88 -24.222,7.109 -24.222,0C-24.222,-7.109 -18.451,-12.88 -11.342,-12.88ZM-11.342,-9.804C-16.753,-9.804 -21.146,-5.411 -21.146,0C-21.146,5.411 -16.753,9.804 -11.342,9.804C-5.931,9.804 -1.538,5.411 -1.538,0C-1.538,-5.411 -5.931,-9.804 -11.342,-9.804Z" style="fill:rgb(117,253,93);"/>
    </g>
</svg>
